<svg width="131" height="34" viewBox="0 0 131 34" fill="none" xmlns="http://www.w3.org/2000/svg">
<g filter="url(#filter0_d)">
<path fill-rule="evenodd" clip-rule="evenodd" d="M7.47155 24.747H12.3674V12.8951H15.6341L16.0667 8.81145H12.3674L12.3736 6.76738C12.3736 5.70225 12.4743 5.13135 14.0022 5.13135H16.0443V1.04657H12.7771C8.85277 1.04657 7.47211 3.02739 7.47211 6.35935V8.81201H5.0253V12.8957H7.47155V24.747ZM51.3608 12.2593C49.698 12.2593 49.3186 13.1722 49.3186 14.3028V14.9381H53.4007V14.3028C53.4007 13.1722 53.0213 12.2593 51.3608 12.2593ZM67.2762 12.6712C66.2778 12.6712 65.5581 12.9987 64.8283 13.3322V20.8805C65.5273 20.9471 65.928 20.9471 66.5912 20.9471C68.9877 20.9471 69.3162 19.8495 69.3162 18.317V14.7119C69.3162 13.5802 68.9406 12.6712 67.2762 12.6712ZM21.8827 21.4749C20.9514 21.4749 20.5294 21.0104 20.5294 20.116C20.5294 19.2165 20.9838 19.024 22.0181 19.024H24.2024V20.8145C24.1319 20.8469 24.0626 20.8792 23.9941 20.9111C23.3549 21.2092 22.785 21.4749 21.8827 21.4749ZM82.758 12.6712C81.0924 12.6712 80.5154 13.5802 80.5154 14.7119V18.8421C80.5154 19.9766 81.0924 20.8884 82.758 20.8884C84.419 20.8884 85.0005 19.9766 85.0005 18.8421V14.7119C84.9999 13.5802 84.4184 12.6712 82.758 12.6712ZM29.0994 24.7778H25.019L24.8427 23.7457C22.9796 24.7778 21.3168 24.9451 20.2199 24.9451C17.2274 24.9451 15.6347 22.9459 15.6347 20.1809C15.6347 16.9189 17.4933 15.7547 20.8182 15.7547H24.2024V15.0494C24.2024 13.3843 24.0116 12.8957 21.4512 12.8957H17.2649L17.674 8.81201H22.2498C27.8676 8.81201 29.0994 10.5869 29.0994 15.0825V24.7778ZM38.4848 12.6639C39.7065 12.6639 40.4358 12.7597 42.9749 13.1951V9.21388C40.7508 8.71294 39.3019 8.58141 38.0774 8.58141C32.8211 8.58141 30.7319 11.3509 30.7319 15.3478V18.2085C30.7319 22.202 32.8211 24.9664 38.0774 24.9664C39.3019 24.9664 40.7508 24.8354 42.9749 24.3367V20.3533C40.4358 20.7904 39.7065 20.8878 38.4848 20.8878C36.2904 20.8878 35.6272 20.4014 35.6272 18.5376V15.0119C35.6272 13.1481 36.2904 12.6639 38.4848 12.6639ZM58.296 18.2085H49.318V18.5376C49.318 20.4014 49.9818 20.8878 52.1756 20.8878C54.1479 20.8878 55.3517 20.7904 57.8863 20.3533V24.3367C55.4418 24.8354 54.168 24.9664 51.7699 24.9664C46.513 24.9664 44.4227 22.202 44.4227 18.2085V14.9375C44.4227 11.4432 45.9735 8.58141 51.3602 8.58141C56.7469 8.58141 58.296 11.4102 58.296 14.9375V18.2085ZM66.4256 24.9591C73.1078 24.9591 74.2109 22.1438 74.2109 18.284H74.2104V14.3033C74.2104 10.7766 73.3949 8.58197 68.5002 8.58197C67.2544 8.58197 65.8855 8.78179 64.8277 9.1747V1.45684L59.9336 2.27346V24.3373C62.597 24.747 64.0123 24.9591 66.4256 24.9591ZM89.8997 18.368C89.8997 21.6977 88.5252 24.9272 82.7742 24.9272C77.0204 24.9272 75.6201 21.6977 75.6201 18.368V15.153C75.6201 11.8216 77.0204 8.59149 82.7742 8.59149C88.5252 8.59149 89.8997 11.8216 89.8997 15.153V18.368ZM98.4518 24.9272C104.202 24.9272 105.578 21.6977 105.578 18.368V15.153C105.578 11.8216 104.202 8.59149 98.4518 8.59149C92.698 8.59149 91.2977 11.8216 91.2977 15.153V18.368C91.2977 21.6977 92.698 24.9272 98.4518 24.9272ZM121.667 24.747H116.362L111.876 17.2564V24.747H106.98V2.2729L111.876 1.45628V15.9243L116.362 8.81201H121.667L116.769 16.5735L121.667 24.747ZM96.1953 14.7119C96.1953 13.5802 96.7723 12.6712 98.435 12.6712C100.095 12.6712 100.683 13.5802 100.683 14.7119V18.8421C100.683 19.9766 100.095 20.8884 98.435 20.8884C96.7723 20.8884 96.1953 19.9766 96.1953 18.8421V14.7119ZM124.462 21.9518C125.286 21.9518 125.943 22.624 125.943 23.4636C125.943 24.316 125.286 24.981 124.456 24.981C123.63 24.981 122.96 24.316 122.96 23.4636C122.96 22.624 123.63 21.9518 124.456 21.9518H124.462ZM123.248 23.4636C123.248 22.7584 123.791 22.1869 124.456 22.1869H124.462C125.132 22.1869 125.668 22.7589 125.668 23.4703C125.668 24.1817 125.132 24.7526 124.462 24.7459C123.792 24.7459 123.248 24.1817 123.248 23.4636ZM124.174 24.3435H123.905V22.6565L123.919 22.6546C124.055 22.6357 124.187 22.6173 124.382 22.6173C124.637 22.6173 124.804 22.671 124.907 22.7444C125.006 22.8188 125.059 22.9324 125.059 23.0931C125.059 23.3158 124.912 23.4496 124.731 23.5039V23.5168C124.879 23.5442 124.979 23.6774 125.013 23.9254C125.052 24.1879 125.093 24.288 125.119 24.3429H124.838C124.798 24.288 124.757 24.1341 124.724 23.9119C124.684 23.6975 124.576 23.617 124.361 23.617H124.175V24.3435H124.174ZM124.369 23.4099H124.174V22.8378C124.22 22.8317 124.281 22.825 124.369 22.825C124.67 22.825 124.777 22.9722 124.777 23.1199C124.777 23.3287 124.589 23.4099 124.369 23.4099Z" fill="white"/>
<path d="M12.3674 24.747V25.247H12.8674V24.747H12.3674ZM7.47155 24.747H6.97155V25.247H7.47155V24.747ZM12.3674 12.8951V12.3951H11.8674V12.8951H12.3674ZM15.6341 12.8951V13.3951H16.0839L16.1313 12.9478L15.6341 12.8951ZM16.0667 8.81145L16.5639 8.86413L16.6225 8.31145H16.0667V8.81145ZM12.3674 8.81145L11.8674 8.80995L11.8659 9.31145H12.3674V8.81145ZM12.3736 6.76738L12.8736 6.76889V6.76738H12.3736ZM16.0443 5.13135V5.63135H16.5443V5.13135H16.0443ZM16.0443 1.04657H16.5443V0.546568H16.0443V1.04657ZM7.47211 8.81201V9.31201H7.97211V8.81201H7.47211ZM5.0253 8.81201V8.31201H4.5253V8.81201H5.0253ZM5.0253 12.8957H4.5253V13.3957H5.0253V12.8957ZM7.47155 12.8957H7.97155V12.3957H7.47155V12.8957ZM49.3186 14.9381H48.8186V15.4381H49.3186V14.9381ZM53.4007 14.9381V15.4381H53.9007V14.9381H53.4007ZM64.8283 13.3322L64.6204 12.8775L64.3283 13.011V13.3322H64.8283ZM64.8283 20.8805H64.3283V21.3351L64.7809 21.3783L64.8283 20.8805ZM24.2024 19.024H24.7024V18.524H24.2024V19.024ZM24.2024 20.8145L24.411 21.2689L24.7024 21.1351V20.8145H24.2024ZM23.9941 20.9111L24.2054 21.3642L24.2054 21.3642L23.9941 20.9111ZM85.0005 14.7119L85.5005 14.7119L85.5005 14.7117L85.0005 14.7119ZM25.019 24.7778L24.5261 24.862L24.5971 25.2778H25.019V24.7778ZM29.0994 24.7778V25.2778H29.5994V24.7778H29.0994ZM24.8427 23.7457L25.3355 23.6615L25.2169 22.9668L24.6004 23.3083L24.8427 23.7457ZM24.2024 15.7547V16.2547H24.7024V15.7547H24.2024ZM17.2649 12.8957L16.7674 12.8458L16.7123 13.3957H17.2649V12.8957ZM17.674 8.81201V8.31201H17.2216L17.1765 8.76217L17.674 8.81201ZM42.9749 13.1951L42.8904 13.6879L43.4749 13.7882V13.1951H42.9749ZM42.9749 9.21388H43.4749V8.81398L43.0848 8.7261L42.9749 9.21388ZM42.9749 24.3367L43.0843 24.8246L43.4749 24.737V24.3367H42.9749ZM42.9749 20.3533H43.4749V19.7598L42.8901 19.8605L42.9749 20.3533ZM49.318 18.2085V17.7085H48.818V18.2085H49.318ZM58.296 18.2085V18.7085H58.796V18.2085H58.296ZM57.8863 20.3533H58.3863V19.7597L57.8014 19.8605L57.8863 20.3533ZM57.8863 24.3367L57.9863 24.8266L58.3863 24.745V24.3367H57.8863ZM74.2109 18.284H74.7109V17.784H74.2109V18.284ZM74.2104 18.284H73.7104V18.784H74.2104V18.284ZM64.8277 9.1747H64.3277V9.89382L65.0019 9.64341L64.8277 9.1747ZM64.8277 1.45684H65.3277V0.866497L64.7455 0.963655L64.8277 1.45684ZM59.9336 2.27346L59.8513 1.78027L59.4336 1.84997V2.27346H59.9336ZM59.9336 24.3373H59.4336V24.7663L59.8575 24.8315L59.9336 24.3373ZM116.362 24.747L115.933 25.0039L116.079 25.247H116.362V24.747ZM121.667 24.747V25.247H122.55L122.096 24.49L121.667 24.747ZM111.876 17.2564L112.305 16.9995L111.376 15.4486V17.2564H111.876ZM111.876 24.747V25.247H112.376V24.747H111.876ZM106.98 24.747H106.48V25.247H106.98V24.747ZM106.98 2.2729L106.898 1.77971L106.48 1.84939V2.2729H106.98ZM111.876 1.45628H112.376V0.86597L111.793 0.963091L111.876 1.45628ZM111.876 15.9243H111.376V17.654L112.299 16.191L111.876 15.9243ZM116.362 8.81201V8.31201H116.087L115.94 8.54524L116.362 8.81201ZM121.667 8.81201L122.09 9.07886L122.574 8.31201H121.667V8.81201ZM116.769 16.5735L116.346 16.3067L116.182 16.5668L116.34 16.8306L116.769 16.5735ZM124.462 24.7459L124.467 24.2459H124.462V24.7459ZM123.905 24.3435H123.405V24.8435H123.905V24.3435ZM123.905 22.6565L123.837 22.1613L123.405 22.2212V22.6565H123.905ZM123.919 22.6546L123.85 22.1594L123.85 22.1594L123.919 22.6546ZM124.907 22.7444L125.207 22.3445L125.198 22.3378L124.907 22.7444ZM124.731 23.5039L124.588 23.025L124.231 23.132V23.5039H124.731ZM124.731 23.5168H124.231V23.9322L124.64 24.0083L124.731 23.5168ZM125.013 23.9254L124.518 23.9936L124.518 23.9991L125.013 23.9254ZM125.119 24.3429V24.8429H125.914L125.57 24.1267L125.119 24.3429ZM124.838 24.3429L124.433 24.6363L124.583 24.8429H124.838V24.3429ZM124.724 23.9119L125.218 23.8372L125.217 23.8296L125.216 23.822L124.724 23.9119ZM124.175 23.617V23.117H123.675V23.617H124.175ZM124.175 24.3435V24.8435H124.675V24.3435H124.175ZM124.174 23.4099H123.674V23.9099H124.174V23.4099ZM124.174 22.8378L124.108 22.3423L123.674 22.4004V22.8378H124.174ZM12.3674 24.247H7.47155V25.247H12.3674V24.247ZM11.8674 12.8951V24.747H12.8674V12.8951H11.8674ZM15.6341 12.3951H12.3674V13.3951H15.6341V12.3951ZM15.5695 8.75878L15.1369 12.8424L16.1313 12.9478L16.5639 8.86413L15.5695 8.75878ZM12.3674 9.31145H16.0667V8.31145H12.3674V9.31145ZM11.8736 6.76588L11.8674 8.80995L12.8674 8.81296L12.8736 6.76889L11.8736 6.76588ZM14.0022 4.63135C13.2124 4.63135 12.5901 4.77101 12.2213 5.24155C12.0431 5.46905 11.9609 5.73042 11.9198 5.98154C11.8792 6.22872 11.8736 6.50003 11.8736 6.76738H12.8736C12.8736 6.50217 12.8805 6.3027 12.9066 6.14326C12.9321 5.98777 12.9706 5.9067 13.0085 5.85833C13.0721 5.77713 13.2641 5.63135 14.0022 5.63135V4.63135ZM16.0443 4.63135H14.0022V5.63135H16.0443V4.63135ZM15.5443 1.04657V5.13135H16.5443V1.04657H15.5443ZM12.7771 1.54657H16.0443V0.546568H12.7771V1.54657ZM7.97211 6.35935C7.97211 4.74912 8.30778 3.57002 9.02156 2.79133C9.72735 2.02136 10.8927 1.54657 12.7771 1.54657V0.546568C10.7371 0.546568 9.25002 1.06219 8.28439 2.11562C7.32676 3.16033 6.97211 4.63763 6.97211 6.35935H7.97211ZM7.97211 8.81201V6.35935H6.97211V8.81201H7.97211ZM5.0253 9.31201H7.47211V8.31201H5.0253V9.31201ZM5.5253 12.8957V8.81201H4.5253V12.8957H5.5253ZM7.47155 12.3957H5.0253V13.3957H7.47155V12.3957ZM7.97155 24.747V12.8957H6.97155V24.747H7.97155ZM49.8186 14.3028C49.8186 13.7755 49.9109 13.4084 50.103 13.1739C50.278 12.9602 50.6186 12.7593 51.3608 12.7593V11.7593C50.4403 11.7593 49.7598 12.0148 49.3294 12.5402C48.916 13.0448 48.8186 13.6995 48.8186 14.3028H49.8186ZM49.8186 14.9381V14.3028H48.8186V14.9381H49.8186ZM53.4007 14.4381H49.3186V15.4381H53.4007V14.4381ZM52.9007 14.3028V14.9381H53.9007V14.3028H52.9007ZM51.3608 12.7593C52.1017 12.7593 52.4417 12.9601 52.6165 13.1737C52.8084 13.4083 52.9007 13.7755 52.9007 14.3028H53.9007C53.9007 13.6995 53.8033 13.0449 53.3904 12.5404C52.9603 12.0149 52.2804 11.7593 51.3608 11.7593V12.7593ZM65.0362 13.787C65.7664 13.4532 66.3974 13.1712 67.2762 13.1712V12.1712C66.1582 12.1712 65.3498 12.5441 64.6204 12.8775L65.0362 13.787ZM65.3283 20.8805V13.3322H64.3283V20.8805H65.3283ZM66.5912 20.4471C65.9307 20.4471 65.5498 20.447 64.8757 20.3828L64.7809 21.3783C65.5048 21.4472 65.9253 21.4471 66.5912 21.4471V20.4471ZM68.8162 18.317C68.8162 19.0782 68.7259 19.5721 68.4656 19.8899C68.2242 20.1845 67.7301 20.4471 66.5912 20.4471V21.4471C67.8488 21.4471 68.7171 21.1609 69.2392 20.5236C69.7422 19.9095 69.8162 19.0884 69.8162 18.317H68.8162ZM68.8162 14.7119V18.317H69.8162V14.7119H68.8162ZM67.2762 13.1712C68.0202 13.1712 68.3597 13.3717 68.5335 13.584C68.7245 13.8172 68.8162 14.1831 68.8162 14.7119H69.8162C69.8162 14.109 69.72 13.4545 69.3072 12.9504C68.8772 12.4252 68.1967 12.1712 67.2762 12.1712V13.1712ZM20.0294 20.116C20.0294 20.6331 20.1509 21.1226 20.4985 21.4796C20.8486 21.8392 21.3403 21.9749 21.8827 21.9749V20.9749C21.4937 20.9749 21.3088 20.8783 21.2151 20.7821C21.1189 20.6833 21.0294 20.4932 21.0294 20.116H20.0294ZM22.0181 18.524C21.5058 18.524 20.9915 18.5635 20.6102 18.8156C20.1664 19.1089 20.0294 19.5874 20.0294 20.116H21.0294C21.0294 19.745 21.1196 19.6776 21.1616 19.6498C21.2661 19.5807 21.4962 19.524 22.0181 19.524V18.524ZM24.2024 18.524H22.0181V19.524H24.2024V18.524ZM24.7024 20.8145V19.024H23.7024V20.8145H24.7024ZM24.2054 21.3642C24.2741 21.3322 24.342 21.3005 24.411 21.2689L23.9939 20.3601C23.9217 20.3932 23.8511 20.4261 23.7828 20.4579L24.2054 21.3642ZM21.8827 21.9749C22.9035 21.9749 23.56 21.6652 24.2054 21.3642L23.7828 20.4579C23.1498 20.7531 22.6664 20.9749 21.8827 20.9749V21.9749ZM81.0154 14.7119C81.0154 14.2247 81.1395 13.8575 81.3735 13.6127C81.6032 13.3724 82.0142 13.1712 82.758 13.1712V12.1712C81.8362 12.1712 81.1259 12.4245 80.6507 12.9217C80.1798 13.4143 80.0154 14.0675 80.0154 14.7119H81.0154ZM81.0154 18.8421V14.7119H80.0154V18.8421H81.0154ZM82.758 20.3884C82.0146 20.3884 81.6038 20.1867 81.374 19.9457C81.1397 19.6998 81.0154 19.331 81.0154 18.8421H80.0154C80.0154 19.4876 80.1797 20.142 80.6502 20.6356C81.1253 21.1341 81.8357 21.3884 82.758 21.3884V20.3884ZM84.5005 18.8421C84.5005 19.3302 84.3756 19.6991 84.1405 19.9454C83.9099 20.1869 83.4986 20.3884 82.758 20.3884V21.3884C83.6783 21.3884 84.3884 21.1339 84.8638 20.6359C85.3347 20.1427 85.5005 19.4885 85.5005 18.8421H84.5005ZM84.5005 14.7119V18.8421H85.5005V14.7119H84.5005ZM82.758 13.1712C83.4987 13.1712 83.91 13.3722 84.1405 13.613C84.3754 13.8583 84.5002 14.2257 84.5005 14.7122L85.5005 14.7117C85.5002 14.0664 85.334 13.4135 84.8629 12.9214C84.3874 12.4248 83.6777 12.1712 82.758 12.1712V13.1712ZM25.019 25.2778H29.0994V24.2778H25.019V25.2778ZM24.3498 23.8299L24.5261 24.862L25.5118 24.6936L25.3355 23.6615L24.3498 23.8299ZM20.2199 25.4451C21.3729 25.4451 23.1261 25.2682 25.085 24.1831L24.6004 23.3083C22.8331 24.2874 21.2608 24.4451 20.2199 24.4451V25.4451ZM15.1347 20.1809C15.1347 21.6564 15.5603 22.9785 16.4359 23.9371C17.3176 24.9023 18.6065 25.4451 20.2199 25.4451V24.4451C18.8408 24.4451 17.8372 23.9884 17.1743 23.2627C16.5054 22.5304 16.1347 21.4703 16.1347 20.1809H15.1347ZM20.8182 15.2547C19.1154 15.2547 17.6811 15.5492 16.6687 16.3529C15.6309 17.1768 15.1347 18.4536 15.1347 20.1809H16.1347C16.1347 18.6462 16.5677 17.7099 17.2905 17.1361C18.0386 16.5422 19.1961 16.2547 20.8182 16.2547V15.2547ZM24.2024 15.2547H20.8182V16.2547H24.2024V15.2547ZM23.7024 15.0494V15.7547H24.7024V15.0494H23.7024ZM21.4512 13.3957C22.0811 13.3957 22.5362 13.4262 22.8679 13.4892C23.1996 13.5523 23.3635 13.6399 23.4528 13.7201C23.5337 13.7927 23.5992 13.9001 23.643 14.1117C23.6894 14.3361 23.7024 14.6324 23.7024 15.0494H24.7024C24.7024 14.6339 24.6916 14.2447 24.6222 13.9092C24.5502 13.5608 24.408 13.2339 24.121 12.9761C23.8426 12.7261 23.4788 12.5874 23.0546 12.5068C22.6303 12.4262 22.1014 12.3957 21.4512 12.3957V13.3957ZM17.2649 13.3957H21.4512V12.3957H17.2649V13.3957ZM17.1765 8.76217L16.7674 12.8458L17.7624 12.9455L18.1716 8.86185L17.1765 8.76217ZM22.2498 8.31201H17.674V9.31201H22.2498V8.31201ZM29.5994 15.0825C29.5994 12.8238 29.2993 11.0671 28.134 9.90704C26.9723 8.75049 25.077 8.31201 22.2498 8.31201V9.31201C25.0404 9.31201 26.5699 9.76095 27.4285 10.6157C28.2836 11.467 28.5994 12.8455 28.5994 15.0825H29.5994ZM29.5994 24.7778V15.0825H28.5994V24.7778H29.5994ZM43.0594 12.7023C40.5198 12.2668 39.7533 12.1639 38.4848 12.1639V13.1639C39.6598 13.1639 40.3517 13.2525 42.8904 13.6879L43.0594 12.7023ZM42.4749 9.21388V13.1951H43.4749V9.21388H42.4749ZM38.0774 9.08141C39.2591 9.08141 40.6709 9.20746 42.865 9.70166L43.0848 8.7261C40.8308 8.21843 39.3447 8.08141 38.0774 8.08141V9.08141ZM31.2319 15.3478C31.2319 13.4315 31.7321 11.8856 32.789 10.8174C33.8445 9.75052 35.5333 9.08141 38.0774 9.08141V8.08141C35.3651 8.08141 33.3812 8.79703 32.0781 10.1141C30.7763 11.4298 30.2319 13.2672 30.2319 15.3478H31.2319ZM31.2319 18.2085V15.3478H30.2319V18.2085H31.2319ZM38.0774 24.4664C35.5331 24.4664 33.8442 23.7984 32.7887 22.7331C31.732 21.6666 31.2319 20.123 31.2319 18.2085H30.2319C30.2319 20.2875 30.7764 22.1229 32.0784 23.4369C33.3815 24.7522 35.3654 25.4664 38.0774 25.4664V24.4664ZM42.8655 23.8489C40.6712 24.3409 39.2593 24.4664 38.0774 24.4664V25.4664C39.3445 25.4664 40.8305 25.33 43.0843 24.8246L42.8655 23.8489ZM42.4749 20.3533V24.3367H43.4749V20.3533H42.4749ZM38.4848 21.3878C39.7537 21.3878 40.5206 21.2832 43.0597 20.846L42.8901 19.8605C40.3509 20.2977 39.6594 20.3878 38.4848 20.3878V21.3878ZM35.1272 18.5376C35.1272 19.5001 35.292 20.2954 35.9194 20.801C36.51 21.2768 37.3919 21.3878 38.4848 21.3878V20.3878C37.3833 20.3878 36.8364 20.2556 36.5468 20.0223C36.2941 19.8186 36.1272 19.4388 36.1272 18.5376H35.1272ZM35.1272 15.0119V18.5376H36.1272V15.0119H35.1272ZM38.4848 12.1639C37.3922 12.1639 36.5103 12.2743 35.9197 12.7494C35.2919 13.2544 35.1272 14.0494 35.1272 15.0119H36.1272C36.1272 14.1106 36.2941 13.7316 36.5465 13.5286C36.8361 13.2957 37.383 13.1639 38.4848 13.1639V12.1639ZM49.318 18.7085H58.296V17.7085H49.318V18.7085ZM49.818 18.5376V18.2085H48.818V18.5376H49.818ZM52.1756 20.3878C51.0744 20.3878 50.5275 20.2556 50.2378 20.0222C49.985 19.8186 49.818 19.4387 49.818 18.5376H48.818C48.818 19.5002 48.983 20.2955 49.6105 20.801C50.2011 21.2768 51.083 21.3878 52.1756 21.3878V20.3878ZM57.8014 19.8605C55.2908 20.2935 54.1157 20.3878 52.1756 20.3878V21.3878C54.1801 21.3878 55.4125 21.2873 57.9713 20.846L57.8014 19.8605ZM58.3863 24.3367V20.3533H57.3863V24.3367H58.3863ZM51.7699 25.4664C54.2029 25.4664 55.5101 25.3318 57.9863 24.8266L57.7864 23.8468C55.3734 24.3391 54.1331 24.4664 51.7699 24.4664V25.4664ZM43.9227 18.2085C43.9227 20.2876 44.4675 22.1229 45.7699 23.437C47.0734 24.7522 49.0576 25.4664 51.7699 25.4664V24.4664C49.2253 24.4664 47.536 23.7984 46.4801 22.733C45.4231 21.6665 44.9227 20.1229 44.9227 18.2085H43.9227ZM43.9227 14.9375V18.2085H44.9227V14.9375H43.9227ZM51.3602 8.08141C48.582 8.08141 46.691 8.82096 45.5037 10.1104C44.3234 11.3921 43.9227 13.1268 43.9227 14.9375H44.9227C44.9227 13.2539 45.2975 11.8105 46.2393 10.7878C47.174 9.77276 48.7518 9.08141 51.3602 9.08141V8.08141ZM58.796 14.9375C58.796 13.1113 58.3963 11.3757 57.2154 10.0974C56.0277 8.81179 54.1368 8.08141 51.3602 8.08141V9.08141C53.9703 9.08141 55.5473 9.76542 56.4808 10.776C57.4212 11.7939 57.796 13.2364 57.796 14.9375H58.796ZM58.796 18.2085V14.9375H57.796V18.2085H58.796ZM73.7109 18.284C73.7109 20.1897 73.4323 21.6882 72.4591 22.7272C71.4894 23.7627 69.7162 24.4591 66.4256 24.4591V25.4591C69.8172 25.4591 71.9367 24.7479 73.189 23.4108C74.438 22.0772 74.7109 20.2381 74.7109 18.284H73.7109ZM74.2104 18.784H74.2109V17.784H74.2104V18.784ZM73.7104 14.3033V18.284H74.7104V14.3033H73.7104ZM68.5002 9.08197C70.8904 9.08197 72.1304 9.61989 72.805 10.4382C73.499 11.2801 73.7104 12.5474 73.7104 14.3033H74.7104C74.7104 12.5325 74.514 10.9392 73.5766 9.80209C72.6198 8.64136 71.0047 8.08197 68.5002 8.08197V9.08197ZM65.0019 9.64341C65.9908 9.27604 67.2981 9.08197 68.5002 9.08197V8.08197C67.2107 8.08197 65.7802 8.28753 64.6536 8.706L65.0019 9.64341ZM64.3277 1.45684V9.1747H65.3277V1.45684H64.3277ZM60.0159 2.76664L64.91 1.95002L64.7455 0.963655L59.8513 1.78027L60.0159 2.76664ZM60.4336 24.3373V2.27346H59.4336V24.3373H60.4336ZM66.4256 24.4591C64.0534 24.4591 62.6704 24.2524 60.0096 23.8431L59.8575 24.8315C62.5235 25.2416 63.9713 25.4591 66.4256 25.4591V24.4591ZM82.7742 25.4272C85.7426 25.4272 87.6842 24.5909 88.8711 23.2241C90.0463 21.8707 90.3997 20.0894 90.3997 18.368H89.3997C89.3997 19.9763 89.0659 21.4746 88.116 22.5684C87.1779 23.6488 85.5568 24.4272 82.7742 24.4272V25.4272ZM75.1201 18.368C75.1201 20.0911 75.4807 21.8724 76.663 23.2253C77.8565 24.591 79.8044 25.4272 82.7742 25.4272V24.4272C79.9902 24.4272 78.361 23.6487 77.416 22.5672C76.4597 21.4729 76.1201 19.9746 76.1201 18.368H75.1201ZM75.1201 15.153V18.368H76.1201V15.153H75.1201ZM82.7742 8.09149C79.8044 8.09149 77.8564 8.92786 76.6629 10.294C75.4807 11.6472 75.1201 13.4291 75.1201 15.153H76.1201C76.1201 13.5455 76.4597 12.0466 77.416 10.9519C78.3611 9.87016 79.9902 9.09149 82.7742 9.09149V8.09149ZM90.3997 15.153C90.3997 13.4308 90.0463 11.6489 88.8712 10.2952C87.6842 8.92793 85.7426 8.09149 82.7742 8.09149V9.09149C85.5567 9.09149 87.1779 9.87009 88.116 10.9507C89.0659 12.0449 89.3997 13.5438 89.3997 15.153H90.3997ZM90.3997 18.368V15.153H89.3997V18.368H90.3997ZM105.078 18.368C105.078 19.9762 104.744 21.4745 103.794 22.5684C102.855 23.6488 101.234 24.4272 98.4518 24.4272V25.4272C101.42 25.4272 103.361 24.5909 104.549 23.2241C105.724 21.8708 106.078 20.0895 106.078 18.368H105.078ZM105.078 15.153V18.368H106.078V15.153H105.078ZM98.4518 9.09149C101.234 9.09149 102.855 9.87007 103.794 10.9508C104.744 12.045 105.078 13.5439 105.078 15.153H106.078C106.078 13.4307 105.724 11.6488 104.549 10.2951C103.361 8.92795 101.42 8.09149 98.4518 8.09149V9.09149ZM91.7977 15.153C91.7977 13.5455 92.1373 12.0466 93.0936 10.9519C94.0387 9.87016 95.6678 9.09149 98.4518 9.09149V8.09149C95.482 8.09149 93.534 8.92786 92.3405 10.294C91.1583 11.6472 90.7977 13.4291 90.7977 15.153H91.7977ZM91.7977 18.368V15.153H90.7977V18.368H91.7977ZM98.4518 24.4272C95.6678 24.4272 94.0386 23.6487 93.0936 22.5672C92.1373 21.4729 91.7977 19.9746 91.7977 18.368H90.7977C90.7977 20.0911 91.1583 21.8724 92.3406 23.2253C93.5341 24.591 95.482 25.4272 98.4518 25.4272V24.4272ZM116.362 25.247H121.667V24.247H116.362V25.247ZM111.447 17.5133L115.933 25.0039L116.791 24.4901L112.305 16.9995L111.447 17.5133ZM112.376 24.747V17.2564H111.376V24.747H112.376ZM106.98 25.247H111.876V24.247H106.98V25.247ZM106.48 2.2729V24.747H107.48V2.2729H106.48ZM111.793 0.963091L106.898 1.77971L107.062 2.76608L111.958 1.94946L111.793 0.963091ZM112.376 15.9243V1.45628H111.376V15.9243H112.376ZM115.94 8.54524L111.453 15.6575L112.299 16.191L116.785 9.07879L115.94 8.54524ZM121.667 8.31201H116.362V9.31201H121.667V8.31201ZM117.192 16.8404L122.09 9.07886L121.245 8.54517L116.346 16.3067L117.192 16.8404ZM122.096 24.49L117.198 16.3165L116.34 16.8306L121.238 25.004L122.096 24.49ZM98.435 12.1712C97.5144 12.1712 96.8048 12.4247 96.33 12.9219C95.8597 13.4144 95.6953 14.0675 95.6953 14.7119H96.6953C96.6953 14.2247 96.8194 13.8574 97.0532 13.6125C97.2826 13.3723 97.6929 13.1712 98.435 13.1712V12.1712ZM101.183 14.7119C101.183 14.0654 101.015 13.4124 100.542 12.9207C100.065 12.4248 99.3547 12.1712 98.435 12.1712V13.1712C99.1758 13.1712 99.5891 13.3722 99.8213 13.6137C100.057 13.8594 100.183 14.2268 100.183 14.7119H101.183ZM101.183 18.8421V14.7119H100.183V18.8421H101.183ZM98.435 21.3884C99.3552 21.3884 100.066 21.1339 100.543 20.6367C101.015 20.1438 101.183 19.4897 101.183 18.8421H100.183C100.183 19.3289 100.057 19.698 99.8208 19.9446C99.5885 20.1869 99.1753 20.3884 98.435 20.3884V21.3884ZM95.6953 18.8421C95.6953 19.4876 95.8595 20.1419 96.3295 20.6355C96.8042 21.1339 97.5139 21.3884 98.435 21.3884V20.3884C97.6933 20.3884 97.2832 20.1869 97.0537 19.9459C96.8195 19.6999 96.6953 19.331 96.6953 18.8421H95.6953ZM95.6953 14.7119V18.8421H96.6953V14.7119H95.6953ZM126.443 23.4636C126.443 22.3581 125.572 21.4518 124.462 21.4518V22.4518C125 22.4518 125.443 22.8899 125.443 23.4636H126.443ZM124.456 25.481C125.57 25.481 126.443 24.5838 126.443 23.4636H125.443C125.443 24.0483 125.001 24.481 124.456 24.481V25.481ZM122.46 23.4636C122.46 24.5886 123.35 25.481 124.456 25.481V24.481C123.909 24.481 123.46 24.0435 123.46 23.4636H122.46ZM124.456 21.4518C123.349 21.4518 122.46 22.3518 122.46 23.4636H123.46C123.46 22.8962 123.91 22.4518 124.456 22.4518V21.4518ZM124.462 21.4518H124.456V22.4518H124.462V21.4518ZM124.456 21.6869C123.49 21.6869 122.748 22.508 122.748 23.4636H123.748C123.748 23.0088 124.092 22.6869 124.456 22.6869V21.6869ZM124.462 21.6869H124.456V22.6869H124.462V21.6869ZM126.168 23.4703C126.168 22.5131 125.438 21.6869 124.462 21.6869V22.6869C124.827 22.6869 125.168 23.0048 125.168 23.4703H126.168ZM124.457 25.2459C125.437 25.2557 126.168 24.4268 126.168 23.4703H125.168C125.168 23.9366 124.827 24.2495 124.467 24.2459L124.457 25.2459ZM122.748 23.4636C122.748 24.4344 123.493 25.2459 124.462 25.2459V24.2459C124.091 24.2459 123.748 23.929 123.748 23.4636H122.748ZM123.905 24.8435H124.174V23.8435H123.905V24.8435ZM123.405 22.6565V24.3435H124.405V22.6565H123.405ZM123.85 22.1594L123.837 22.1613L123.974 23.1517L123.988 23.1499L123.85 22.1594ZM124.382 22.1173C124.151 22.1173 123.99 22.1399 123.85 22.1594L123.988 23.1499C124.12 23.1315 124.223 23.1173 124.382 23.1173V22.1173ZM125.198 22.3378C124.982 22.1833 124.7 22.1173 124.382 22.1173V23.1173C124.575 23.1173 124.627 23.1588 124.616 23.1509L125.198 22.3378ZM125.559 23.0931C125.559 22.8103 125.457 22.5328 125.207 22.3446L124.606 23.1441C124.599 23.1386 124.59 23.1307 124.582 23.1201C124.573 23.1095 124.567 23.0988 124.563 23.0894C124.555 23.0706 124.559 23.0674 124.559 23.0931H125.559ZM124.875 23.9828C125.203 23.8842 125.559 23.597 125.559 23.0931H124.559C124.559 23.0934 124.559 23.0911 124.56 23.0868C124.56 23.0824 124.562 23.0766 124.564 23.0699C124.57 23.0557 124.577 23.043 124.586 23.0334C124.601 23.0154 124.608 23.0188 124.588 23.025L124.875 23.9828ZM125.231 23.5168V23.5039H124.231V23.5168H125.231ZM125.508 23.8571C125.463 23.5283 125.289 23.112 124.823 23.0252L124.64 24.0083C124.614 24.0034 124.584 23.9925 124.557 23.9746C124.531 23.9569 124.514 23.9381 124.506 23.9263C124.498 23.9153 124.499 23.9124 124.503 23.9239C124.507 23.9354 124.513 23.9576 124.518 23.9936L125.508 23.8571ZM125.57 24.1267C125.568 24.1221 125.562 24.1099 125.552 24.0753C125.541 24.0364 125.525 23.9677 125.508 23.8516L124.518 23.9991C124.563 24.2963 124.615 24.4475 124.668 24.5591L125.57 24.1267ZM124.838 24.8429H125.119V23.8429H124.838V24.8429ZM124.229 23.9866C124.248 24.1086 124.27 24.2218 124.295 24.3183C124.315 24.3938 124.354 24.5269 124.433 24.6363L125.243 24.0495C125.269 24.0857 125.277 24.1107 125.274 24.1027C125.273 24.0995 125.268 24.087 125.262 24.0621C125.249 24.0124 125.233 23.9375 125.218 23.8372L124.229 23.9866ZM124.361 24.117C124.415 24.117 124.364 24.1287 124.297 24.0751C124.225 24.018 124.224 23.9586 124.232 24.0018L125.216 23.822C125.184 23.6508 125.109 23.444 124.92 23.293C124.735 23.1455 124.522 23.117 124.361 23.117V24.117ZM124.175 24.117H124.361V23.117H124.175V24.117ZM124.675 24.3435V23.617H123.675V24.3435H124.675ZM124.174 24.8435H124.175V23.8435H124.174V24.8435ZM124.174 23.9099H124.369V22.9099H124.174V23.9099ZM123.674 22.8378V23.4099H124.674V22.8378H123.674ZM124.369 22.325C124.253 22.325 124.169 22.3341 124.108 22.3423L124.241 23.3334C124.271 23.3293 124.309 23.325 124.369 23.325V22.325ZM125.277 23.1199C125.277 22.9221 125.202 22.7015 125.012 22.5379C124.829 22.3804 124.596 22.325 124.369 22.325V23.325C124.443 23.325 124.415 23.3432 124.36 23.2962C124.333 23.2729 124.31 23.242 124.295 23.2069C124.281 23.1732 124.277 23.1427 124.277 23.1199H125.277ZM124.369 23.9099C124.528 23.9099 124.735 23.8826 124.92 23.7675C125.134 23.634 125.277 23.4047 125.277 23.1199H124.277C124.277 23.0948 124.283 23.0522 124.309 23.0061C124.335 22.9609 124.368 22.9332 124.391 22.9188C124.412 22.9058 124.423 22.9044 124.416 22.906C124.41 22.9074 124.394 22.9099 124.369 22.9099V23.9099Z" fill="black"/>
</g>
<defs>
<filter id="filter0_d" x="0.525295" y="0.546568" width="129.917" height="32.9344" filterUnits="userSpaceOnUse" color-interpolation-filters="sRGB">
<feFlood flood-opacity="0" result="BackgroundImageFix"/>
<feColorMatrix in="SourceAlpha" type="matrix" values="0 0 0 0 0 0 0 0 0 0 0 0 0 0 0 0 0 0 127 0"/>
<feOffset dy="4"/>
<feGaussianBlur stdDeviation="2"/>
<feColorMatrix type="matrix" values="0 0 0 0 0 0 0 0 0 0 0 0 0 0 0 0 0 0 0.25 0"/>
<feBlend mode="normal" in2="BackgroundImageFix" result="effect1_dropShadow"/>
<feBlend mode="normal" in="SourceGraphic" in2="effect1_dropShadow" result="shape"/>
</filter>
</defs>
</svg>
